<svg width="18" height="18" viewBox="0 0 18 18" fill="none" xmlns="http://www.w3.org/2000/svg">
<path d="M13.929 1.17885L8.94118 6.21452L3.94277 1.1108L3.94278 1.1108L3.94079 1.10879C3.15081 0.311228 1.84941 0.279869 1.09187 1.1181C0.31353 1.91378 0.285981 3.21146 1.1096 3.97087L6.10613 9.01536L1.10104 14.0685C0.313553 14.8635 0.282745 16.1689 1.11025 16.9312C1.52273 17.3425 2.0209 17.5 2.55133 17.5C3.08572 17.5 3.58736 17.3402 4.00163 16.9219L9 11.8756L13.9984 16.9219C14.4126 17.3402 14.9143 17.5 15.4487 17.5C15.9831 17.5 16.4847 17.3402 16.899 16.9219C17.6873 16.126 17.7173 14.8187 16.887 14.0567L11.7782 9.07076L16.7773 4.02365C17.5648 3.2286 17.5956 1.92325 16.7681 1.16095C15.9774 0.372626 14.6837 0.344559 13.929 1.17885Z" fill="white" stroke="black"/>
</svg>
