<svg width="16" height="16" viewBox="0 0 16 16" xmlns="http://www.w3.org/2000/svg"><path d="M10.0684 8.07678L15.4221 2.67179C16.0304 2.05758 16.0304 1.07486 15.4221 0.522073C14.8137 -0.0921305 13.8403 -0.0921305 13.2928 0.522073L7.93916 5.92706L2.58555 0.460653C1.97719 -0.153551 1.0038 -0.153551 0.456274 0.460653C-0.152091 1.07486 -0.152091 2.05758 0.456274 2.61036L5.80989 8.01536L0.456274 13.4203C-0.152091 14.0345 -0.152091 15.0173 0.456274 15.5701C0.760456 15.8772 1.12548 16 1.55133 16C1.97719 16 2.34221 15.8772 2.64639 15.5701L8 10.1651L13.3536 15.5701C13.6578 15.8772 14.0228 16 14.4487 16C14.8745 16 15.2395 15.8772 15.5437 15.5701C16.1521 14.9559 16.1521 13.9731 15.5437 13.4203L10.0684 8.07678Z"></path></svg>