<svg width="19" height="16" viewBox="0 0 19 16" fill="none" xmlns="http://www.w3.org/2000/svg">
<path d="M10.3361 6.38978C8.9485 6.38978 7.82771 7.46326 7.82771 8.79233C7.82771 10.1214 8.9485 11.1949 10.3361 11.1949C11.7238 11.1949 12.8446 10.1214 12.8446 8.79233C12.8446 7.46326 11.7238 6.38978 10.3361 6.38978ZM19 5.07774V12.5921C19 14.4665 17.3989 16 15.4419 16H3.55805C1.60112 16 0 14.4665 0 12.5921V5.07774C0 3.59531 1.26311 2.38552 2.81086 2.38552H2.9176C3.86049 2.38552 4.73221 1.94249 5.26592 1.19276C5.78183 0.443024 6.67135 0 7.61423 0H11.2968C12.2397 0 13.1114 0.443024 13.6451 1.19276C14.161 1.94249 15.0506 2.38552 15.9934 2.38552H16.1891C17.7369 2.38552 19 3.59531 19 5.07774ZM4.9279 5.58892C4.9279 5.1459 4.55431 4.78807 4.09176 4.78807C3.62921 4.78807 3.25562 5.1459 3.25562 5.58892C3.25562 6.03195 3.62921 6.38978 4.09176 6.38978C4.55431 6.38978 4.9279 6.03195 4.9279 5.58892ZM14.5169 8.79233C14.5169 6.57721 12.6489 4.78807 10.3361 4.78807C8.02341 4.78807 6.15543 6.57721 6.15543 8.79233C6.15543 11.0075 8.02341 12.7966 10.3361 12.7966C12.6489 12.7966 14.5169 11.0075 14.5169 8.79233Z" fill="white"/>
</svg>
