<svg width="29" height="22" viewBox="0 0 29 22" xmlns="http://www.w3.org/2000/svg"><path d="M2 18C0.89543 18 0 18.8954 0 20C0 21.1046 0.89543 22 2 22V18ZM18.5 22C19.6046 22 20.5 21.1046 20.5 20C20.5 18.8954 19.6046 18 18.5 18V22ZM2 9C0.89543 9 0 9.89543 0 11C0 12.1046 0.89543 13 2 13V9ZM22.625 13C23.7296 13 24.625 12.1046 24.625 11C24.625 9.89543 23.7296 9 22.625 9V13ZM2 0C0.89543 0 0 0.89543 0 2C0 3.10457 0.89543 4 2 4V0ZM26.75 4C27.8546 4 28.75 3.10457 28.75 2C28.75 0.89543 27.8546 0 26.75 0V4ZM2 22H18.5V18H2V22ZM2 13H22.625V9H2V13ZM2 4H26.75V0H2V4Z"></path></svg>
