<svg width="84" height="45" viewBox="0 0 84 45" fill="none" xmlns="http://www.w3.org/2000/svg">
<path fill-rule="evenodd" clip-rule="evenodd" d="M37.1104 28.6388C37.7722 29.0267 39.9675 27.7373 40.4192 27.2865C40.5557 27.1712 40.6292 26.9825 40.7238 26.8148C41.2385 25.9447 41.8477 24.8441 42.583 24.1207C42.709 23.995 42.8351 23.8796 42.9716 23.7329C43.2867 23.4079 43.1187 23.2402 42.688 23.2612C42.3309 23.2821 41.9212 23.4184 41.5011 23.649C40.2091 24.3409 38.77 25.7665 38.1083 26.5318C37.5411 27.2027 37.0684 27.9365 37.1104 28.6388ZM28.4132 27.1188C28.7808 27.3494 29.9782 26.993 30.9656 26.6052C32.2051 26.1125 33.6231 25.2529 34.4109 24.1732C34.5685 23.9635 34.9781 23.2402 34.642 23.083C34.6 23.083 34.5475 23.0515 34.5054 23.0515C34.2323 23.0305 33.9277 23.0934 33.6651 23.1563C31.911 23.7224 31.2597 24.1627 29.9257 25.2424C29.6001 25.5149 28.4867 26.71 28.4132 27.1188ZM39.5368 29.2154C39.5053 29.4355 39.0431 30.5676 38.9276 30.8926C38.6755 31.6159 38.4234 32.2973 38.1608 33.0101C37.7302 34.2261 37.205 35.4735 36.6693 36.6581C36.4277 37.1613 36.2071 37.6644 35.9235 38.1361C35.3143 39.2473 34.747 40.2012 33.9487 41.1971C32.3416 43.063 30.3669 43.9331 27.867 43.0001C25.6821 42.2034 24.7158 41.2076 23.1087 39.6876C22.2789 38.9014 23.1297 39.111 22.657 38.6184C22.4994 38.4506 22.2474 38.3248 22.0268 38.2934C21.7852 38.2619 21.5226 38.2724 21.3965 38.3668C20.9764 38.7232 21.7747 39.5933 22.0373 39.8868C22.678 40.5996 23.6759 41.4697 24.6422 42.172C26.3544 43.4299 28.5917 44.4468 30.7976 44.2476C31.6484 44.1113 31.9635 43.996 32.5202 43.7025C33.9487 42.9372 34.9151 41.9309 35.7869 40.5577C37.226 38.3039 38.5285 34.9284 39.1902 33.1988L40.7238 29.1944C40.8603 28.8485 41.1649 28.23 41.438 27.9784C42.6355 26.9196 43.6334 25.9343 44.3792 24.5401C44.6312 24.1103 44.5367 23.7119 44.1586 23.4394C43.9695 23.2821 44.043 23.2716 43.938 23.0934L43.7279 22.7685C43.6124 22.6217 43.5703 22.6112 43.4233 22.475C43.1922 22.2863 42.9296 22.1814 42.562 22.15C42.0053 22.0976 41.2175 22.454 40.3877 23.0096C38.6545 24.1732 36.7323 26.2173 36.4067 27.2656C36.3857 27.3075 36.3751 27.3494 36.3541 27.4018C36.2176 27.3389 36.1336 27.297 35.8815 27.276C35.5348 27.2551 35.4403 27.3285 35.2827 27.5696C35.0622 27.9574 34.0958 28.3453 33.203 28.6493C31.9215 29.0791 29.432 29.7709 28.3606 28.9428C28.2031 28.838 28.0455 28.5864 28.0665 28.3663C28.8963 28.6283 29.5266 28.492 30.3249 28.2614C30.7135 28.1461 31.0602 28.0203 31.5118 27.8526C32.8563 27.2446 34.1588 26.4374 35.1147 25.3158C35.8289 24.4772 36.1231 23.4708 35.4193 22.5274C35.1567 22.171 34.7996 21.9299 34.2954 21.9299C34.0118 21.9299 33.7071 21.9823 33.434 22.0347C32.6462 22.2024 31.932 22.4959 31.2702 22.8733C29.7157 23.7538 28.3606 25.0118 27.3838 26.4584C27.1737 26.4584 26.9951 26.385 26.9846 26.4689C26.9426 27.2341 26.8796 27.7897 26.9951 28.3138C27.3102 29.7709 28.6022 30.4942 30.0413 30.5571C31.869 30.6305 34.0853 29.6976 35.6819 28.9952C35.9235 28.8904 36.06 28.7751 36.2176 28.6807C36.3962 29.729 37.4255 29.9491 38.3709 29.7605C38.7385 29.6242 39.1482 29.446 39.5368 29.2154Z" fill="white"/>
<path fill-rule="evenodd" clip-rule="evenodd" d="M63.2968 25.2005C63.3493 25.169 63.801 24.5086 63.7905 24.4038C63.5384 24.3304 63.3913 24.3094 63.1603 24.3723C62.3725 24.5715 61.4796 25.2424 60.8809 25.777C60.5763 26.0496 60.2822 26.3431 60.0616 26.6681C59.82 26.993 59.694 27.2656 59.6414 27.6744C59.5994 27.9574 59.6624 28.1147 59.8935 28.0623C60.6603 27.905 61.6267 27.0559 62.1834 26.6052C62.2989 26.4899 62.2674 26.4794 62.2569 26.406C62.2149 26.2487 62.3094 26.1859 62.383 26.1439C62.4565 26.0915 62.5405 26.0181 62.6246 25.9238C62.8346 25.7036 63.1182 25.4311 63.2968 25.2005ZM54.0954 24.7078C54.7571 24.2361 55.6289 23.4708 56.4587 22.6741C56.9419 22.2129 57.4146 21.7412 57.8243 21.3009C58.8957 20.1688 59.9356 18.9947 60.9229 17.7892C62.0048 16.4579 63.3703 14.6444 64.2947 13.1453C64.6413 12.5793 65.0825 11.835 65.177 11.6358C65.3556 11.2375 65.5552 10.7553 65.6707 10.336C65.7442 10.1054 65.8178 9.64411 65.8178 9.27722C65.8178 8.72163 65.7022 8.7426 65.3346 9.05708C64.4838 9.78039 63.864 10.336 63.0762 11.1536C62.3725 11.8874 61.3011 13.072 60.6918 13.9001C58.9167 16.3321 56.8894 19.0471 55.5764 21.6783C55.2823 22.2548 54.9462 22.8209 54.6731 23.387L54.0954 24.7078ZM48.9484 26.0076C48.9799 25.7561 48.9589 25.7561 48.8749 25.5779C48.6753 25.2634 48.0871 24.8965 47.8455 25.3892C47.6039 25.8609 47.2993 26.3745 46.8686 26.7205C46.2594 27.2027 45.3456 27.9784 44.6523 28.3558C44.2322 28.5864 44.0536 28.5654 44.1061 28.0413C44.1481 27.6639 44.3687 27.1922 44.5998 26.7519C45.0199 25.9657 45.272 25.6303 45.7447 24.9594C45.9233 24.7078 45.9128 24.582 45.6607 24.3409C45.4821 24.1627 45.1565 24.0159 44.9464 24.0683C44.6733 24.1417 44.6943 24.3304 44.5788 24.5715C44.0641 25.6932 43.5494 26.1963 43.2343 27.5067C43.1292 27.9365 43.1292 28.5445 43.3393 28.9847C43.7175 29.7709 44.4212 29.6032 45.0935 29.2468C45.6817 28.9323 46.3119 28.4501 46.6165 28.2195C46.7531 28.8485 46.9632 29.4879 47.73 29.6032C48.2342 29.6871 49.2635 29.1734 50.2614 28.5759C51.2698 27.9679 52.2467 27.2761 52.5828 27.035C52.6878 27.7478 52.7509 28.4396 53.255 28.9533C53.9063 29.5927 54.3685 29.6556 55.0302 29.4984C55.6604 29.3412 56.2697 29.1 56.8474 28.8065C57.5407 28.4606 58.1919 28.0413 58.8116 27.5905C58.8957 28.4816 59.3263 29.3726 60.3977 29.0372C60.8914 28.8799 62.0048 28.1985 62.3725 27.8107C62.404 28.1356 62.3515 28.6493 62.7191 29.1839C63.2968 30.0225 64.1686 30.1274 65.156 30.0854C66.9207 30.012 68.6958 29.4669 70.366 28.9009C73.5802 27.8212 76.8679 26.8043 80.2817 26.5423C81.1325 26.4794 82.1619 26.4584 82.9497 26.8148C83.0757 26.8567 83.3383 27.0664 83.4854 27.0874C83.853 27.1817 84.0211 26.7414 84.0211 26.4584C84.0211 26.2697 83.9581 26.081 83.79 25.8923C83.6745 25.777 83.5169 25.777 83.3699 25.777C83.1913 25.7875 82.9602 25.7141 82.6136 25.6512C81.8153 25.494 81.08 25.515 80.2712 25.5674C76.7209 25.7875 73.2966 26.9406 69.9458 28.0098C68.2967 28.534 67.1623 28.8904 65.2295 29.0686C63.9901 29.121 62.9712 29.0581 63.1918 27.6849C63.2548 27.2865 63.4334 26.8777 63.6224 26.5947C63.7065 26.4584 63.843 26.2383 64.0111 25.9867C64.4522 25.3368 65.0825 24.4772 65.3031 24.257C65.3661 24.1836 65.4291 24.1312 65.4816 24.0788C65.9963 23.5861 65.2926 22.6008 64.8934 23.1563L64.5468 23.6176C64.4733 23.7119 64.4943 23.7119 64.3787 23.7434C64.0111 23.5442 64.0426 23.2821 63.3073 23.2821C62.2674 23.3136 61.049 24.257 60.2927 24.9384C59.9986 25.211 59.736 25.4835 59.4104 25.8504C58.7801 26.5423 57.3516 27.4228 56.5008 27.8631C55.6184 28.3138 54.568 28.7646 54.1479 28.6912C53.8012 28.6283 53.6332 28.1461 53.5702 27.6639C53.5176 27.3075 53.5281 26.9616 53.5491 26.7729C53.5807 26.5632 53.5702 26.2487 53.7172 26.1649L54.9357 25.1795C56.0911 24.2361 57.089 23.3345 58.1499 22.2758C58.381 22.0452 58.6226 21.8041 58.8536 21.563C60.9334 19.4035 63.7065 15.9128 65.3241 13.1663C65.9753 12.0761 66.7001 10.6085 66.6791 9.43446C66.6686 8.9208 66.511 8.26039 65.9963 7.99832C65.5657 7.77819 65.2295 7.90398 64.9354 8.10315C64.4312 8.44908 63.7695 9.07804 63.1182 9.75942C62.3935 10.5037 61.6687 11.3109 61.217 11.835C60.5868 12.5478 60.0301 13.2502 59.4944 13.9525C58.381 15.4306 57.4356 16.9086 56.3747 18.5544C56.2172 18.785 56.1121 19.0261 55.9546 19.2568C55.4083 20.1583 54.5785 21.6992 53.8643 23.1354C53.3286 24.2256 52.8664 25.2529 52.6668 25.9028C52.4042 26.123 51.6269 26.6366 50.8076 27.1398C50.6396 27.2446 50.482 27.3389 50.3139 27.4438C49.6417 27.8526 49.0114 28.209 48.6753 28.3558C48.4862 28.4396 48.3707 28.513 48.1921 28.5654C47.835 28.6703 47.6354 28.7856 47.6985 28.3243C47.7615 27.6744 48.4127 26.3326 48.9484 26.0076Z" fill="white"/>
<path fill-rule="evenodd" clip-rule="evenodd" d="M25.336 5.6406C24.6113 4.88584 23.792 4.21495 22.8991 3.6384C21.4916 2.74737 20.1891 2.34902 18.7606 3.42875C16.8488 4.87536 14.3279 7.72666 11.807 11.3642C12.2481 11.3118 13.1515 11.1964 13.6556 11.144C16.2921 10.84 20.8298 10.253 23.6659 9.55066C25.9663 8.98459 27.0377 7.91535 25.4936 5.81881C25.4306 5.76639 25.3885 5.7035 25.336 5.6406ZM4.35966 12.2762L0.9984 12.8108C-0.125522 13.7437 0.179093 16.5426 0.924872 17.853C0.966888 17.9264 1.04042 18.0312 1.08243 18.1046C-0.115018 20.7777 -0.692734 23.5975 1.38705 26.0714C2.84709 27.8011 4.67478 29.2372 6.75456 30.275C6.80708 30.3064 6.83859 30.2855 6.82809 30.254C6.82809 30.2226 6.79658 30.1702 6.75456 30.1492C4.90587 29.1429 3.96051 27.1511 4.58024 25.1594C4.79032 24.4885 5.05292 23.7547 5.36804 22.979C5.48358 23.0943 5.64114 23.2306 5.81971 23.3669C6.90161 24.3208 8.15158 25.2852 9.5276 26.1972C12.4582 28.1365 15.3783 29.4678 17.6682 30.0234C19.8845 30.558 22.2899 30.3379 24.1701 29.038C26.4705 27.4551 28.3297 25.3376 29.5481 22.8742C29.6006 22.7589 29.4851 22.5387 29.3065 22.8637C27.3423 26.4907 24.1491 28.6816 19.832 26.6794C17.332 25.5263 14.475 23.5556 11.7544 20.9978C10.3994 19.7399 9.20198 18.44 8.1936 17.1611C8.21461 17.1192 8.24612 17.0668 8.26713 17.0248L9.37004 16.8886C14.7376 16.1024 23.3508 15.2113 27.9305 12.5697C29.6216 11.5948 30.0733 10.1272 29.3275 8.72252C26.4284 3.32392 20.4412 -0.261174 13.6977 0.02186C9.84272 0.179101 6.34491 1.58379 3.60338 3.80612C3.16221 4.49798 2.94163 5.34708 2.8681 6.20667C2.77357 7.44363 3.00465 8.70155 3.4038 9.56114C5.13695 5.31563 9.21248 2.1813 14.1073 1.6362C11.7649 3.16668 8.63476 6.32198 5.71467 10.3369C5.23149 10.9868 4.77982 11.6367 4.35966 12.2762Z" fill="white"/>
<path fill-rule="evenodd" clip-rule="evenodd" d="M63.5488 32.5384H63.3072C63.3072 32.4755 63.2862 32.4231 63.2547 32.3811C63.1917 32.3182 63.0971 32.2973 62.9606 32.2973C62.8871 32.2973 62.8345 32.3077 62.782 32.3287C62.698 32.3602 62.6665 32.4231 62.6665 32.4964C62.6665 32.5489 62.6875 32.5908 62.7295 32.6222C62.761 32.6432 62.8345 32.6642 62.9396 32.6956L63.1917 32.7585C63.3387 32.79 63.4543 32.8424 63.5173 32.9053C63.5803 32.9682 63.6118 33.0415 63.6118 33.1359C63.6118 33.2826 63.5593 33.398 63.4438 33.4818C63.3282 33.5657 63.1917 33.6076 63.0131 33.6076C62.761 33.6076 62.5719 33.5447 62.4669 33.4189C62.4039 33.3351 62.3619 33.2302 62.3619 33.1044H62.6034C62.6034 33.1883 62.6244 33.2512 62.6665 33.2931C62.7295 33.3665 62.845 33.398 63.0026 33.398C63.1076 33.398 63.1812 33.377 63.2442 33.3455C63.3177 33.3036 63.3492 33.2512 63.3492 33.1673C63.3492 33.1149 63.3282 33.073 63.2862 33.0415C63.2442 33.0101 63.1707 32.9891 63.0551 32.9577L62.761 32.8843C62.6455 32.8633 62.5614 32.8214 62.5089 32.769C62.4459 32.7061 62.4144 32.6327 62.4144 32.5384C62.4144 32.3916 62.4669 32.2763 62.5824 32.1924C62.6875 32.1191 62.8135 32.0771 62.9816 32.0771C63.1601 32.0771 63.2967 32.1191 63.4017 32.2029C63.5068 32.2973 63.5488 32.4021 63.5488 32.5384ZM59.9039 33.5552V32.1295H60.1455V32.3287C60.219 32.2449 60.2821 32.182 60.3556 32.14C60.4291 32.0981 60.5132 32.0876 60.5972 32.0876C60.7127 32.0876 60.8073 32.1191 60.8808 32.1715C60.9228 32.2029 60.9543 32.2553 60.9963 32.3182C61.0699 32.2344 61.1329 32.182 61.1854 32.1505C61.2589 32.1086 61.3535 32.0876 61.4585 32.0876C61.5741 32.0876 61.6686 32.1191 61.7526 32.1715C61.8682 32.2553 61.9207 32.3916 61.9207 32.5698V33.5552H61.6686V32.6327C61.6686 32.5279 61.6476 32.444 61.6161 32.3916C61.5741 32.3287 61.5005 32.2973 61.3955 32.2973C61.2904 32.2973 61.2064 32.3392 61.1434 32.4126C61.0804 32.486 61.0489 32.5803 61.0489 32.6851V33.5552H60.7968V32.5698C60.7968 32.4964 60.7863 32.4335 60.7547 32.3916C60.7127 32.3287 60.6497 32.3078 60.5657 32.3078C60.4711 32.3078 60.3871 32.3392 60.3136 32.4021C60.219 32.486 60.1665 32.6117 60.1665 32.79V33.5657H59.9039V33.5552ZM58.3388 32.7271H59.1687C59.1687 32.6013 59.1371 32.5069 59.0741 32.4335C59.0006 32.3497 58.8955 32.2973 58.7485 32.2973C58.6329 32.2973 58.5384 32.3392 58.4544 32.4231C58.3809 32.5174 58.3388 32.6117 58.3388 32.7271ZM59.1581 33.1149H59.4102C59.3997 33.1673 59.3787 33.2302 59.3472 33.2931C59.2947 33.3875 59.2317 33.4504 59.1476 33.5133C59.0951 33.5447 59.0531 33.5657 59.0111 33.5762C58.9376 33.5971 58.8535 33.6076 58.738 33.6076C58.5279 33.6076 58.3703 33.5447 58.2548 33.4084C58.1393 33.2722 58.0762 33.1044 58.0762 32.8948C58.0762 32.6642 58.1288 32.4755 58.2443 32.3287C58.3704 32.1715 58.5489 32.0981 58.7905 32.0981C59.0006 32.0981 59.1581 32.1715 59.2737 32.3182C59.3787 32.465 59.4418 32.6746 59.4418 32.9262H58.3493C58.3493 33.073 58.3809 33.1988 58.4544 33.2722C58.5279 33.356 58.6329 33.398 58.78 33.398C58.885 33.398 58.9796 33.3665 59.0636 33.2931C59.1266 33.2302 59.1581 33.1673 59.1581 33.1149ZM57.7191 32.3287H57.4775V33.2617C57.4775 33.3141 57.4985 33.3455 57.53 33.356C57.551 33.3665 57.5826 33.3665 57.6246 33.3665H57.7086V33.5552L57.5195 33.5762C57.404 33.5762 57.32 33.5447 57.2779 33.4923C57.2359 33.4399 57.2149 33.3665 57.2149 33.2722V32.3287H57.0153V32.1295H57.2149V31.7312H57.467V32.1295H57.7086V32.3287H57.7191ZM56.6582 32.5384H56.4166C56.4166 32.4755 56.3956 32.4231 56.3641 32.3811C56.3011 32.3182 56.2065 32.2973 56.07 32.2973C55.9965 32.2973 55.9439 32.3077 55.8914 32.3287C55.8074 32.3602 55.7759 32.4231 55.7759 32.4964C55.7759 32.5489 55.7969 32.5908 55.8389 32.6222C55.8704 32.6432 55.9334 32.6642 56.049 32.6956L56.3011 32.7585C56.4586 32.79 56.5637 32.8424 56.6267 32.9053C56.6897 32.9682 56.7212 33.0415 56.7212 33.1359C56.7212 33.2826 56.6687 33.398 56.5532 33.4818C56.4376 33.5657 56.3011 33.6076 56.1225 33.6076C55.8704 33.6076 55.6813 33.5447 55.5763 33.4189C55.5133 33.3351 55.4818 33.2302 55.4818 33.1044H55.7234C55.7234 33.1883 55.7444 33.2512 55.7864 33.2931C55.8494 33.3665 55.965 33.398 56.1225 33.398C56.2275 33.398 56.3011 33.377 56.3641 33.3455C56.4376 33.3036 56.4691 33.2512 56.4691 33.1673C56.4691 33.1149 56.4481 33.073 56.4061 33.0415C56.3641 33.0101 56.2906 32.9891 56.175 32.9577L55.8809 32.8843C55.7654 32.8633 55.6918 32.8214 55.6288 32.769C55.5658 32.7061 55.5343 32.6327 55.5343 32.5384C55.5343 32.3916 55.5868 32.2763 55.7024 32.1924C55.8074 32.1191 55.9334 32.0771 56.1015 32.0771C56.2801 32.0771 56.4166 32.1191 56.5217 32.2029C56.6057 32.2973 56.6582 32.4021 56.6582 32.5384ZM54.8935 32.1295H55.1667C55.0826 32.3602 54.9881 32.5908 54.9041 32.8319C54.82 33.0625 54.7255 33.3036 54.6309 33.5342C54.5154 33.8277 54.4209 34.0059 54.3683 34.0584C54.3158 34.1213 54.2003 34.1422 54.0427 34.1422C54.0217 34.1422 54.0007 34.1422 53.9902 34.1317C53.9692 34.1213 53.9587 34.1213 53.9377 34.1213V33.9011C53.9587 33.9116 53.9797 33.9116 54.0007 33.9221C54.0217 33.9326 54.0532 33.9326 54.0847 33.9326C54.1478 33.9326 54.1898 33.9116 54.2213 33.8802C54.2423 33.8487 54.2843 33.7544 54.3473 33.6076L53.7906 32.14H54.0742L54.4734 33.3036L54.8935 32.1295ZM53.4545 32.5384H53.2129C53.2129 32.4755 53.1919 32.4231 53.1604 32.3811C53.0974 32.3182 53.0028 32.2973 52.8663 32.2973C52.7928 32.2973 52.7402 32.3077 52.6877 32.3287C52.6037 32.3602 52.5722 32.4231 52.5722 32.4964C52.5722 32.5489 52.5932 32.5908 52.6352 32.6222C52.6667 32.6432 52.7402 32.6642 52.8453 32.6956L53.0974 32.7585C53.2444 32.79 53.36 32.8424 53.423 32.9053C53.486 32.9682 53.5175 33.0415 53.5175 33.1359C53.5175 33.2826 53.465 33.398 53.3495 33.4818C53.2339 33.5657 53.0974 33.6076 52.9188 33.6076C52.6667 33.6076 52.4776 33.5447 52.3726 33.4189C52.3096 33.3351 52.2676 33.2302 52.2676 33.1044H52.5092C52.5092 33.1883 52.5302 33.2512 52.5722 33.2931C52.6352 33.3665 52.7507 33.398 52.9083 33.398C53.0133 33.398 53.0869 33.377 53.1499 33.3455C53.2234 33.3036 53.2549 33.2512 53.2549 33.1673C53.2549 33.1149 53.2339 33.073 53.1919 33.0415C53.1499 33.0101 53.0764 32.9891 52.9608 32.9577L52.6667 32.8843C52.5512 32.8633 52.4671 32.8214 52.4146 32.769C52.3516 32.7061 52.3201 32.6327 52.3201 32.5384C52.3201 32.3916 52.3726 32.2763 52.4881 32.1924C52.5932 32.1191 52.7297 32.0771 52.8873 32.0771C53.0659 32.0771 53.2024 32.1191 53.3075 32.2029C53.402 32.2973 53.4545 32.4021 53.4545 32.5384ZM49.6836 32.7271H50.5134C50.5134 32.6013 50.4819 32.5069 50.4189 32.4335C50.3453 32.3497 50.2403 32.2973 50.0932 32.2973C49.9777 32.2973 49.8832 32.3392 49.7991 32.4231C49.7256 32.5174 49.6836 32.6117 49.6836 32.7271ZM50.5029 33.1149H50.755C50.7445 33.1673 50.7235 33.2302 50.692 33.2931C50.6395 33.3875 50.5764 33.4504 50.4924 33.5133C50.4399 33.5447 50.3979 33.5657 50.3558 33.5762C50.2823 33.5971 50.1983 33.6076 50.0827 33.6076C49.8727 33.6076 49.7151 33.5447 49.5996 33.4084C49.484 33.2722 49.421 33.1044 49.421 32.8948C49.421 32.6642 49.4735 32.4755 49.5891 32.3287C49.7151 32.1715 49.8937 32.0981 50.1353 32.0981C50.3453 32.0981 50.5029 32.1715 50.6184 32.3182C50.7235 32.465 50.7865 32.6746 50.7865 32.9262H49.6836C49.6836 33.073 49.7151 33.1988 49.7886 33.2722C49.8622 33.356 49.9672 33.398 50.1143 33.398C50.2193 33.398 50.3138 33.3665 50.3979 33.2931C50.4714 33.2302 50.5029 33.1673 50.5029 33.1149ZM49.0639 32.6117H48.8223C48.8118 32.5174 48.7698 32.4335 48.7067 32.3811C48.6437 32.3287 48.5702 32.2973 48.4651 32.2973C48.3181 32.2973 48.213 32.3602 48.1395 32.465C48.0765 32.5593 48.0555 32.6851 48.0555 32.8319C48.0555 32.9891 48.0765 33.1044 48.129 33.1988C48.192 33.3246 48.3076 33.377 48.4651 33.377C48.5492 33.377 48.6227 33.3455 48.6962 33.2931C48.7592 33.2302 48.8013 33.1464 48.8223 33.0415H49.0639C49.0429 33.1883 49.0008 33.3036 48.9168 33.398C48.8118 33.5237 48.6542 33.5866 48.4546 33.5866C48.2446 33.5866 48.087 33.5237 47.9609 33.3875C47.8454 33.2512 47.7824 33.0835 47.7824 32.8738C47.7824 32.6432 47.8349 32.4545 47.9504 32.3078C48.0765 32.1505 48.2551 32.0771 48.4966 32.0771C48.6752 32.0771 48.8223 32.1295 48.9168 32.2449C49.0113 32.3497 49.0639 32.4755 49.0639 32.6117ZM47.3412 32.5803V33.5552H47.0891V32.6746C47.0891 32.5384 47.0681 32.444 47.0156 32.3916C46.9736 32.3287 46.8895 32.3078 46.7635 32.3078C46.669 32.3078 46.5849 32.3392 46.5114 32.4021C46.4169 32.486 46.3643 32.6117 46.3643 32.79V33.5657H46.1123V32.14H46.3538V32.3392C46.4064 32.2763 46.4589 32.2239 46.5114 32.1924C46.6059 32.1295 46.7005 32.0981 46.816 32.0981C46.9631 32.0981 47.0786 32.1295 47.1626 32.1924C47.2782 32.2658 47.3412 32.4021 47.3412 32.5803ZM44.5577 32.7271H45.3875C45.3875 32.6013 45.356 32.5069 45.2929 32.4335C45.2194 32.3497 45.1144 32.2973 44.9673 32.2973C44.8518 32.2973 44.7572 32.3392 44.6732 32.4231C44.5892 32.5174 44.5577 32.6117 44.5577 32.7271ZM45.377 33.1149H45.6291C45.6186 33.1673 45.5976 33.2302 45.566 33.2931C45.5135 33.3875 45.4505 33.4504 45.3665 33.5133C45.314 33.5447 45.2719 33.5657 45.2299 33.5762C45.1564 33.5971 45.0724 33.6076 44.9568 33.6076C44.7467 33.6076 44.5892 33.5447 44.4736 33.4084C44.3581 33.2722 44.2951 33.1044 44.2951 32.8948C44.2951 32.6642 44.3476 32.4755 44.4631 32.3287C44.5892 32.1715 44.7677 32.0981 45.0093 32.0981C45.2194 32.0981 45.377 32.1715 45.4925 32.3182C45.5976 32.465 45.6501 32.6746 45.6501 32.9262H44.5577C44.5577 33.073 44.5892 33.1988 44.6627 33.2722C44.7362 33.356 44.8413 33.398 44.9883 33.398C45.0934 33.398 45.1879 33.3665 45.2719 33.2931C45.335 33.2302 45.377 33.1673 45.377 33.1149ZM43.8014 31.8675H43.5493V31.5949H43.8014V31.8675ZM43.8014 33.5552H43.5493V32.1295H43.8014V33.5552ZM43.1186 32.6117H42.877C42.8665 32.5174 42.8245 32.4335 42.7615 32.3811C42.6985 32.3287 42.6249 32.2973 42.5199 32.2973C42.3729 32.2973 42.2678 32.3602 42.1943 32.465C42.1313 32.5593 42.1103 32.6851 42.1103 32.8319C42.1103 32.9891 42.1313 33.1044 42.1838 33.1988C42.2468 33.3246 42.3623 33.377 42.5199 33.377C42.6039 33.377 42.6775 33.3455 42.751 33.2931C42.814 33.2302 42.856 33.1464 42.877 33.0415H43.1186C43.0976 33.1883 43.0556 33.3036 42.9716 33.398C42.8665 33.5237 42.709 33.5866 42.5094 33.5866C42.2993 33.5866 42.1418 33.5237 42.0262 33.3875C41.9107 33.2512 41.8477 33.0835 41.8477 32.8738C41.8477 32.6432 41.9002 32.4545 42.0157 32.3078C42.1418 32.1505 42.3203 32.0771 42.5619 32.0771C42.7405 32.0771 42.8875 32.1295 42.9926 32.2449C43.0766 32.3497 43.1186 32.4755 43.1186 32.6117ZM41.4275 32.5384H41.1859C41.1859 32.4755 41.1649 32.4231 41.1334 32.3811C41.0704 32.3182 40.9758 32.2973 40.8393 32.2973C40.7657 32.2973 40.7132 32.3077 40.6607 32.3287C40.5767 32.3602 40.5452 32.4231 40.5452 32.4964C40.5452 32.5489 40.5662 32.5908 40.6082 32.6222C40.6397 32.6432 40.7132 32.6642 40.8183 32.6956L41.0704 32.7585C41.2279 32.79 41.333 32.8424 41.396 32.9053C41.459 32.9682 41.4905 33.0415 41.4905 33.1359C41.4905 33.2826 41.438 33.398 41.3225 33.4818C41.2174 33.5657 41.0704 33.6076 40.9023 33.6076C40.6397 33.6076 40.4611 33.5447 40.3561 33.4189C40.2931 33.3351 40.2511 33.2302 40.2511 33.1044H40.4926C40.4926 33.1883 40.5137 33.2512 40.5557 33.2931C40.6187 33.3665 40.7342 33.398 40.8918 33.398C40.9968 33.398 41.0704 33.377 41.1334 33.3455C41.2069 33.3036 41.2384 33.2512 41.2384 33.1673C41.2384 33.1149 41.2174 33.073 41.1754 33.0415C41.1334 33.0101 41.0599 32.9891 40.9443 32.9577L40.6502 32.8843C40.5452 32.8633 40.4611 32.8214 40.3981 32.769C40.3351 32.7061 40.3036 32.6327 40.3036 32.5384C40.3036 32.3916 40.3561 32.2763 40.4716 32.1924C40.5767 32.1191 40.7027 32.0771 40.8708 32.0771C41.0494 32.0771 41.1859 32.1191 41.2909 32.2029C41.375 32.2973 41.4275 32.4021 41.4275 32.5384ZM37.3205 32.6117H37.0789C37.0684 32.5174 37.0263 32.4335 36.9633 32.3811C36.9003 32.3287 36.8268 32.2973 36.7217 32.2973C36.5747 32.2973 36.4696 32.3602 36.3961 32.465C36.3331 32.5593 36.3121 32.6851 36.3121 32.8319C36.3121 32.9891 36.3331 33.1044 36.3856 33.1988C36.4486 33.3246 36.5642 33.377 36.7217 33.377C36.8058 33.377 36.8793 33.3455 36.9528 33.2931C37.0158 33.2302 37.0579 33.1464 37.0789 33.0415H37.3205C37.2994 33.1883 37.2574 33.3036 37.1734 33.398C37.0684 33.5237 36.9108 33.5866 36.7112 33.5866C36.5011 33.5866 36.3436 33.5237 36.228 33.3875C36.1125 33.2512 36.0495 33.0835 36.0495 32.8738C36.0495 32.6432 36.102 32.4545 36.2175 32.3078C36.3436 32.1505 36.5222 32.0771 36.7637 32.0771C36.9423 32.0771 37.0894 32.1295 37.1944 32.2449C37.2679 32.3497 37.3205 32.4755 37.3205 32.6117ZM35.5873 31.8675H35.3352V31.5949H35.5873V31.8675ZM35.5873 33.5552H35.3352V32.1295H35.5873V33.5552ZM34.8205 32.5384H34.5789C34.5789 32.4755 34.5579 32.4231 34.5264 32.3811C34.4634 32.3182 34.3688 32.2973 34.2323 32.2973C34.1588 32.2973 34.1063 32.3077 34.0537 32.3287C33.9697 32.3602 33.9382 32.4231 33.9382 32.4964C33.9382 32.5489 33.9592 32.5908 34.0012 32.6222C34.0327 32.6432 34.1063 32.6642 34.2113 32.6956L34.4634 32.7585C34.6104 32.79 34.726 32.8424 34.789 32.9053C34.852 32.9682 34.8835 33.0415 34.8835 33.1359C34.8835 33.2826 34.831 33.398 34.7155 33.4818C34.5999 33.5657 34.4634 33.6076 34.2848 33.6076C34.0327 33.6076 33.8437 33.5447 33.7386 33.4189C33.6756 33.3351 33.6336 33.2302 33.6336 33.1044H33.8752C33.8752 33.1883 33.8962 33.2512 33.9382 33.2931C34.0012 33.3665 34.1168 33.398 34.2743 33.398C34.3794 33.398 34.4529 33.377 34.5159 33.3455C34.5894 33.3036 34.6209 33.2512 34.6209 33.1673C34.6209 33.1149 34.5999 33.073 34.5579 33.0415C34.5159 33.0101 34.4424 32.9891 34.3268 32.9577L34.0327 32.8843C33.9172 32.8633 33.8331 32.8214 33.7806 32.769C33.7176 32.7061 33.6861 32.6327 33.6861 32.5384C33.6861 32.3916 33.7386 32.2763 33.8542 32.1924C33.9592 32.1191 34.0957 32.0771 34.2533 32.0771C34.4319 32.0771 34.5684 32.1191 34.6735 32.2029C34.768 32.2973 34.8205 32.4021 34.8205 32.5384ZM33.1819 32.5803V33.5552H32.9298V32.6746C32.9298 32.5384 32.9088 32.444 32.8563 32.3916C32.8143 32.3287 32.7302 32.3078 32.6042 32.3078C32.5097 32.3078 32.4256 32.3392 32.3521 32.4021C32.2576 32.486 32.205 32.6117 32.205 32.79V33.5657H31.9529V32.14H32.1945V32.3392C32.2471 32.2763 32.2996 32.2239 32.3521 32.1924C32.4466 32.1295 32.5412 32.0981 32.6567 32.0981C32.8038 32.0981 32.9193 32.1295 33.0033 32.1924C33.1189 32.2658 33.1819 32.4021 33.1819 32.5803ZM30.3984 32.7271H31.2282C31.2282 32.6013 31.1967 32.5069 31.1336 32.4335C31.0601 32.3497 30.9551 32.2973 30.808 32.2973C30.6925 32.2973 30.5979 32.3392 30.5139 32.4231C30.4299 32.5174 30.3984 32.6117 30.3984 32.7271ZM31.2177 33.1149H31.4698C31.4593 33.1673 31.4382 33.2302 31.4067 33.2931C31.3542 33.3875 31.2912 33.4504 31.2072 33.5133C31.1546 33.5447 31.1126 33.5657 31.0706 33.5762C30.9971 33.5971 30.9131 33.6076 30.7975 33.6076C30.5874 33.6076 30.4299 33.5447 30.3038 33.4084C30.1883 33.2722 30.1253 33.1044 30.1253 32.8948C30.1253 32.6642 30.1778 32.4755 30.2933 32.3287C30.4194 32.1715 30.5979 32.0981 30.8395 32.0981C31.0496 32.0981 31.2072 32.1715 31.3227 32.3182C31.4277 32.465 31.4908 32.6746 31.4908 32.9262H30.3984C30.3984 33.073 30.4299 33.1988 30.5034 33.2722C30.5769 33.356 30.682 33.398 30.829 33.398C30.9341 33.398 31.0286 33.3665 31.1126 33.2931C31.1757 33.2302 31.2177 33.1673 31.2177 33.1149ZM29.3585 32.7271V33.5552H29.1064V32.1295H29.348V32.3706C29.4005 32.2763 29.4635 32.2134 29.5265 32.1715C29.6001 32.1191 29.6841 32.0981 29.7681 32.0981C29.7891 32.0981 29.8101 32.0981 29.8311 32.1086V32.3602H29.7366C29.6211 32.3602 29.5265 32.4021 29.4635 32.465C29.39 32.5279 29.3585 32.6222 29.3585 32.7271ZM27.4783 32.8424C27.4783 32.9786 27.5098 33.094 27.5623 33.1883C27.6358 33.3246 27.7514 33.3875 27.9194 33.3875C28.077 33.3875 28.1925 33.3246 28.2661 33.1883C28.3186 33.094 28.3501 32.9786 28.3501 32.8424C28.3501 32.7061 28.3186 32.5908 28.2661 32.4964C28.1925 32.3602 28.077 32.2973 27.9089 32.2973C27.7514 32.2973 27.6358 32.3602 27.5623 32.4964C27.5098 32.5908 27.4783 32.7061 27.4783 32.8424ZM27.2157 32.8424C27.2157 32.6327 27.2682 32.465 27.3837 32.3287C27.5098 32.1715 27.6883 32.0876 27.9089 32.0876C28.1295 32.0876 28.3081 32.1715 28.4341 32.3287C28.5497 32.465 28.6022 32.6432 28.6022 32.8424C28.6022 33.052 28.5497 33.2197 28.4341 33.356C28.3081 33.5133 28.1295 33.5971 27.9089 33.5971C27.6883 33.5971 27.5098 33.5133 27.3837 33.356C27.2787 33.2197 27.2157 33.0415 27.2157 32.8424ZM26.9005 32.3287H26.6485V33.5552H26.3964V32.3287H26.1863V32.1295H26.3964V31.878C26.3964 31.6683 26.5224 31.5635 26.785 31.5635H26.9005V31.7836L26.7955 31.7731C26.743 31.7731 26.701 31.7836 26.68 31.8151C26.659 31.8465 26.6485 31.8884 26.6485 31.9513V32.1295H26.9005V32.3287Z" fill="#FDFFFF"/>
</svg>
